<?xml version="1.0" encoding="UTF-8" standalone="no"?>
<!DOCTYPE svg PUBLIC "-//W3C//DTD SVG 1.1//EN" "http://www.w3.org/Graphics/SVG/1.1/DTD/svg11.dtd">
<svg width="100%" height="100%" viewBox="0 0 6620 6379" version="1.1" xmlns="http://www.w3.org/2000/svg" xmlns:xlink="http://www.w3.org/1999/xlink" xml:space="preserve" xmlns:serif="http://www.serif.com/" style="fill-rule:evenodd;clip-rule:evenodd;stroke-linejoin:round;stroke-miterlimit:2;">
    <rect id="Artboard1" x="0" y="0" width="6619.66" height="6378.6" style="fill:none;"/>
    <clipPath id="_clip1">
        <rect x="0" y="0" width="6619.66" height="6378.6"/>
    </clipPath>
    <g clip-path="url(#_clip1)">
        <g>
            <g>
                <path d="M3335.99,1022.44C3341.2,1022.43 3346.41,1022.41 3351.78,1022.4C3362.85,1022.37 3373.91,1022.36 3384.97,1022.36C3401.54,1022.35 3418.11,1022.27 3434.68,1022.18C3500.65,1022.02 3565.41,1024.96 3630.95,1032.38C3639.08,1033.24 3639.08,1033.24 3647.38,1034.12C3898.22,1061.66 4137.34,1133.31 4364.07,1243.15C4371.98,1246.89 4379.88,1250.63 4387.79,1254.37C4475.5,1296.43 4559.37,1347.68 4638.99,1403.52C4642.18,1405.75 4645.37,1407.98 4648.66,1410.27C4699.1,1445.69 4747.54,1483.08 4794.78,1522.65C4797.5,1524.91 4800.21,1527.17 4803.01,1529.5C4879.69,1593.51 4956.42,1662.09 5021.04,1738.47C5029.75,1748.68 5038.85,1758.49 5047.94,1768.36C5071.29,1794.25 5092.64,1821.54 5113.91,1849.14C5119.69,1856.61 5125.54,1864.02 5131.4,1871.42C5312.82,2102.53 5439.52,2375.64 5514.16,2658.99C5515.13,2662.65 5516.1,2666.31 5517.1,2670.08C5532.48,2729.18 5542.3,2789.15 5551.67,2849.43C5552.25,2853.12 5552.83,2856.82 5553.43,2860.62C5569.33,2962.6 5575.46,3062.58 5575.18,3165.83C5575.15,3175.45 5575.14,3185.07 5575.13,3194.68C5574.87,3337.81 5564.08,3475.82 5537.07,3616.63C5535.7,3623.76 5535.7,3623.76 5534.31,3631.03C5502.48,3793.73 5446.55,3952.22 5376.7,4102.32C5372.95,4110.56 5369.2,4118.8 5365.46,4127.04C5274.59,4324.74 5147.07,4501.1 5000.97,4661.33C4997.13,4665.6 4993.28,4669.87 4989.32,4674.27C4949.5,4718.34 4908.55,4761.9 4863.21,4800.36C4852.96,4809.14 4843.09,4818.28 4833.16,4827.43C4807.26,4850.79 4779.96,4872.14 4752.36,4893.42C4744.96,4899.15 4737.61,4904.93 4730.26,4910.72C4657.6,4967.62 4581.52,5018.57 4501.53,5064.54C4498.1,5066.53 4494.66,5068.51 4491.13,5070.55C4328.11,5164.18 4155.1,5232.59 3974.6,5284.48C3969.87,5285.86 3965.14,5287.24 3960.27,5288.67C3524.2,5413.85 3028.75,5375.59 2357.95,5089.46C2294.59,5053.69 2233.79,5014.14 2173.87,4972.9C2170.8,4970.8 2167.73,4968.69 2164.57,4966.52C2124.56,4938.9 2086.47,4909.14 2048.79,4878.43C2041.86,4872.8 2034.87,4867.25 2027.88,4861.7C1993.75,4834.45 1962.19,4804.75 1930.48,4774.79C1922.17,4767 1913.79,4759.31 1905.36,4751.66C1881.37,4729.87 1858.07,4708.15 1837.24,4683.23C1830.13,4674.96 1822.61,4667.46 1814.76,4659.9C1797.41,4642.86 1782.45,4624.13 1767.22,4605.2C1758.06,4594 1748.62,4583.24 1738.87,4572.55C1715.83,4546.83 1695.06,4519.45 1674.43,4491.79C1672.18,4488.79 1669.93,4485.78 1667.61,4482.68C1515.68,4278.9 1406.85,4050.92 1330.78,3809.07C1329.4,3804.69 1328.01,3800.32 1326.58,3795.8C1282.8,3655.96 1258.43,3508.74 1249.38,3362.69C1248.51,3350.8 1248.51,3350.8 1245.98,3338.98C1242.66,3316.01 1242.7,3293.16 1242.47,3269.97C1242.41,3264.68 1242.36,3259.39 1242.3,3253.94C1240.76,3076.51 1249.43,2901.15 1289.55,2727.72C1290.62,2722.89 1291.69,2718.05 1292.79,2713.07C1349.21,2460.33 1453.95,2215.2 1596.54,1999.18C1598.96,1995.51 1601.37,1991.84 1603.86,1988.06C1635.43,1940.4 1668.72,1894.8 1705.1,1850.7C1713.65,1840.27 1721.95,1829.65 1730.28,1819.05C1745.84,1799.58 1762.29,1781.06 1779.09,1762.65C1788.08,1752.75 1796.86,1742.7 1805.59,1732.56C1818.19,1718.08 1831.47,1704.57 1845.17,1691.15C1853.32,1682.83 1860.8,1674.16 1868.31,1665.27C1884.16,1646.85 1901.79,1631.02 1920.02,1614.99C1929.34,1606.64 1938.1,1598.1 1946.78,1589.09C1963.32,1572.28 1981.43,1557.72 1999.79,1542.97C2011.33,1533.58 2022.62,1523.97 2033.85,1514.22C2116.33,1442.93 2208.27,1380.83 2302.17,1325.62C2305.74,1323.52 2309.3,1321.41 2312.98,1319.24C2496.19,1211.73 2697.24,1125.18 2905.56,1080.49C2915.95,1078.24 2926.3,1075.85 2936.65,1073.42C3032.54,1051.05 3130.39,1033.84 3228.85,1029.36C3241.7,1028.75 3254.1,1028.02 3266.72,1025.48C3289.81,1022.21 3312.69,1022.47 3335.99,1022.44ZM2205.95,1628.04C2200.24,1632.42 2194.54,1636.8 2188.84,1641.17C2152.5,1669.23 2117.3,1698.25 2084.88,1730.83C2072.58,1743.07 2059.88,1754.72 2047.01,1766.36C2021.3,1789.74 1996.65,1814.05 1972.27,1838.81C1968.53,1842.48 1964.79,1846.14 1960.93,1849.92C1938.84,1872.43 1919.1,1897.05 1898.95,1921.29C1896.59,1924.12 1894.22,1926.95 1891.78,1929.87C1805.23,2033.72 1731.05,2145.1 1668.08,2264.75C1662.5,2275.27 1656.84,2285.73 1651.11,2296.18C1625.78,2342.65 1604.37,2389.9 1584.8,2439.05C1583.32,2442.72 1581.85,2446.39 1580.33,2450.17C1531.66,2571.51 1495.26,2695.97 1469.99,2824.26C1468.52,2831.72 1466.97,2839.18 1465.42,2846.64C1459.22,2877.71 1456.12,2909.05 1453.11,2940.57C1452.76,2944.18 1452.41,2947.79 1452.05,2951.5C1451.74,2954.73 1451.44,2957.97 1451.13,2961.29C1449.92,2970.57 1449.92,2970.57 1447.64,2979.24C1443.9,2994.88 1443.62,3010.82 1442.85,3026.82C1442.66,3030.64 1442.47,3034.45 1442.27,3038.38C1430.61,3291.34 1446.97,3544.61 1527.81,3786.16C1529.33,3790.7 1530.84,3795.24 1532.4,3799.91C1617.11,4049.87 1743.55,4278.66 1916.32,4478.47C1926.11,4489.8 1935.74,4501.12 1944.99,4512.9C1954.92,4525.07 1965.61,4535.78 1976.85,4546.78C1982.68,4552.65 1988.5,4558.52 1994.32,4564.41C2000.71,4570.85 2007.11,4577.28 2013.5,4583.72C2018.31,4588.58 2018.31,4588.58 2023.2,4593.54C2039.19,4609.6 2055.23,4624.41 2073.07,4638.42C2080.77,4645.99 2088.41,4653.62 2095.98,4661.33C2386.92,4938.55 2793.98,5109.76 3191.08,5151.6C3194.79,5152 3198.51,5152.39 3202.34,5152.8C3266.49,5159.47 3330.07,5162.23 3394.55,5161.96C3408.72,5161.91 3422.89,5161.96 3437.06,5162.02C3710.28,5162.21 3977.78,5097.06 4226.61,4986.65C4230.29,4985.03 4233.97,4983.4 4237.75,4981.73C4326.71,4942.15 4411.15,4893.58 4492.37,4840.03C4496.01,4837.63 4499.66,4835.24 4503.41,4832.78C4552.79,4800.2 4599.51,4765.49 4644.82,4727.49C4656.02,4718.16 4667.43,4709.1 4678.8,4699.99C4696.57,4685.39 4713.76,4670.25 4730.65,4654.63C4734.51,4651.06 4734.51,4651.06 4738.45,4647.42C4764.78,4622.95 4790.42,4597.81 4815.84,4572.39C4823.46,4564.78 4831.12,4557.21 4838.78,4549.63C4869.02,4519.55 4896.53,4488.57 4923.08,4455.14C4927.36,4450.09 4931.67,4445.06 4936.04,4440.08C5019.36,4344.53 5086.42,4235.89 5147.6,4125.23C5149.46,4121.9 5151.33,4118.57 5153.25,4115.13C5245.35,3950.04 5306.81,3764.63 5344.62,3579.97C5345.49,3575.82 5346.36,3571.66 5347.25,3567.38C5389.13,3362.08 5396.04,3145.96 5367.53,2938.49C5366.8,2932.87 5366.06,2927.24 5365.3,2921.45C5324.87,2620.18 5212.09,2326.19 5037.63,2077.07C5034.27,2072.26 5034.27,2072.26 5030.83,2067.35C4995.44,2016.94 4958.16,1968.4 4918.5,1921.29C4914.65,1916.66 4910.8,1912.03 4906.84,1907.26C4874.16,1868.26 4839.5,1831.69 4803.4,1795.83C4794.45,1786.93 4785.56,1777.99 4776.66,1769.03C4744.38,1736.71 4711.54,1706.75 4675.65,1678.44C4670.6,1674.16 4665.58,1669.85 4660.6,1665.48C4620.26,1630.31 4577.47,1599.08 4533.61,1568.47C4529.27,1565.43 4529.27,1565.43 4524.84,1562.33C4199.94,1336.35 3808.12,1219.32 3413.59,1219.09C3408.66,1219.09 3403.73,1219.09 3398.64,1219.08C2968.63,1219.51 2545.7,1363.93 2205.95,1628.04Z" style="fill:#00275c;fill-rule:nonzero;"/>
                <path d="M1344.53,3928.21C1345.93,3931.79 1347.33,3935.38 1348.78,3939.08C1394.28,4055.17 1443.14,4167.88 1504.9,4276.44C1506.88,4279.94 1508.86,4283.44 1510.89,4287.05C1566.53,4385.13 1631.57,4477.1 1701.93,4565.11C1689.69,4581.34 1677.29,4593.87 1661.26,4606.34C1640.33,4623.09 1620.61,4640.65 1601.12,4659.04C1578.51,4680.33 1555.33,4700.36 1531.07,4719.78C1517.32,4731.15 1504.21,4743.11 1491.15,4755.26C1469.93,4775.01 1447.99,4793.52 1425.39,4811.71C1413.38,4821.6 1401.84,4831.84 1390.35,4842.32C1371,4859.94 1351,4876.53 1330.66,4892.99C1315.49,4905.44 1300.66,4918.25 1285.82,4931.09C1256.95,4955.99 1227.39,4979.84 1197.15,5003.06C1188.37,5009.85 1179.68,5016.74 1170.99,5023.65C1026.35,5137.13 856.937,5157.53 677.82,5136.45C632.057,5130.12 587.261,5119.76 542.391,5108.93C537.108,5107.66 537.108,5107.66 531.718,5106.37C493.059,5097 455.123,5086.32 417.567,5073.17C414.364,5072.05 411.16,5070.93 407.859,5069.78C358.064,5051.8 317.101,5019.5 292.958,4971.47C272.499,4912.66 282.812,4844.35 308.995,4789.62C310.273,4786.92 311.55,4784.21 312.866,4781.42C335.761,4733.67 364.825,4690.23 396.054,4647.58C398.228,4644.58 400.402,4641.57 402.642,4638.48C432.884,4597.13 464.892,4565.12 506.252,4535.04C519.273,4525.43 531.941,4515.39 544.652,4505.37C587.011,4472.04 630.254,4439.98 673.764,4408.17C691.96,4394.85 710.102,4381.46 728.249,4368.08C735.498,4362.74 742.747,4357.4 749.996,4352.06C764.573,4341.32 779.142,4330.57 793.704,4319.81C832.41,4291.22 871.243,4262.83 910.296,4234.72C935.269,4216.72 960.084,4198.51 984.842,4180.22C1023.24,4151.85 1061.87,4123.84 1100.61,4095.95C1121.2,4081.12 1141.77,4066.25 1162.34,4051.39C1179.85,4038.73 1197.37,4026.09 1214.91,4013.47C1222.03,4008.34 1229.16,4003.21 1236.28,3998.08C1239.7,3995.62 1243.13,3993.16 1246.65,3990.62C1262.15,3979.45 1277.56,3968.18 1292.71,3956.54C1295.25,3954.59 1297.79,3952.64 1300.41,3950.64C1307.07,3945.5 1313.69,3940.32 1320.31,3935.13C1330.78,3928.21 1330.78,3928.21 1344.53,3928.21Z" style="fill:#00275c;fill-rule:nonzero;"/>
                <path d="M2201.37,3305.05L2971.14,3305.05C2998.64,3378.36 2998.64,3378.36 2994.05,3396.69C2988.1,3403.86 2988.1,3403.86 2980.5,3410.74C2977.7,3413.32 2974.9,3415.89 2972.01,3418.55C2967.47,3422.62 2967.47,3422.62 2962.84,3426.76C2958.18,3431.02 2958.18,3431.02 2953.43,3435.36C2947.09,3441.15 2940.73,3446.92 2934.36,3452.67C2924.06,3461.98 2913.84,3471.38 2903.63,3480.78C2892.56,3490.96 2881.44,3501.1 2870.34,3511.24C2861.17,3519.64 2852.01,3528.04 2842.85,3536.44C2838.26,3540.64 2833.68,3544.84 2829.1,3549.04C2825.7,3552.16 2661.86,3702.35 2581.67,3775.85C2579.4,3777.93 2577.13,3780.01 2574.8,3782.16C2570.22,3786.35 2565.65,3790.54 2561.07,3794.73C2549.5,3805.34 2537.93,3815.96 2526.37,3826.58C2505.27,3845.95 2484.15,3865.27 2462.83,3884.39C2440.08,3904.81 2417.63,3925.55 2395.19,3946.3C2353.16,3985.17 2310.78,4023.65 2268.16,4061.87C2247.32,4080.59 2226.58,4099.41 2205.95,4118.36C2178,4144.03 2149.79,4169.41 2121.54,4194.75C2100.49,4213.65 2079.57,4232.66 2058.75,4251.81C2041.02,4268.11 2023.11,4284.15 2004.91,4299.92C1992.34,4311.01 1980.02,4322.36 1967.68,4333.71C1962.96,4338.05 1958.23,4342.38 1953.51,4346.71C1945.38,4354.16 1937.26,4361.63 1929.16,4369.12C1926,4371.99 1922.83,4374.86 1919.57,4377.82C1916.88,4380.28 1914.18,4382.75 1911.41,4385.3C1902.72,4391.58 1895.69,4393.69 1885.21,4395.57C1823.11,4323.95 1771.78,4244.03 1724.84,4161.89C1722.58,4157.96 1720.33,4154.03 1718,4149.98C1659.75,4047.73 1612.71,3941.82 1573.61,3830.87C1569.55,3819.62 1565.13,3808.59 1560.62,3797.51C1553.97,3777.59 1553.97,3777.59 1559.88,3763.25C1567.45,3756.43 1567.45,3756.43 1577.28,3750.04C1580.89,3747.65 1584.49,3745.26 1588.21,3742.8C1592.09,3740.28 1595.98,3737.78 1599.98,3735.19C1608.03,3729.85 1616.07,3724.49 1624.1,3719.12C1628.04,3716.49 1631.98,3713.86 1636.03,3711.15C1650.08,3701.54 1663.38,3691.33 1676.73,3680.78C1700.21,3662.33 1724.43,3645.38 1749.18,3628.66C1780.04,3607.8 1810.13,3586.23 1839.78,3563.7C1864.44,3545 1889.59,3527.09 1914.93,3509.33C1942.92,3489.71 1970.64,3469.72 1998.26,3449.57C2007.88,3442.57 2017.56,3435.66 2027.25,3428.77C2030.68,3426.26 2034.11,3423.74 2037.65,3421.16C2059.19,3405.92 2075.93,3397.76 2102.57,3394.12C2136.66,3388.26 2168.74,3380.65 2192.49,3354.02C2198.54,3338.05 2198.54,3338.05 2201.37,3305.05Z" style="fill:#00275c;fill-rule:nonzero;"/>
                <path d="M1349.11,2429.89C1341.58,2459.89 1332.49,2489.14 1322.48,2518.38C1300.57,2583.01 1283.37,2648.93 1268.07,2715.41C1266.76,2721.05 1266.76,2721.05 1265.43,2726.81C1251.62,2788.41 1242.01,2850.43 1235.11,2913.14C1233.98,2923.36 1232.82,2933.58 1231.64,2943.8C1229.42,2963.4 1227.37,2983.01 1225.4,3002.64C1224.64,3009.96 1224.64,3009.96 1223.88,3017.42C1219.27,3070.22 1219.96,3123.27 1219.97,3176.22C1219.96,3193.23 1219.87,3210.24 1219.79,3227.25C1219.64,3290.44 1221.99,3352.33 1229.98,3415.02C1230.89,3422.48 1231.81,3429.94 1232.72,3437.41C1233.12,3440.73 1233.53,3444.05 1233.95,3447.48C1234.34,3450.66 1234.73,3453.84 1235.13,3457.12C1235.53,3460.3 1235.92,3463.48 1236.32,3466.76C1239.01,3489.44 1239.97,3511.36 1239.14,3534.15C1213.72,3543.97 1188.25,3552.53 1162.11,3560.21C1158.21,3561.37 1154.31,3562.53 1150.29,3563.72C1141.74,3566.26 1133.18,3568.79 1124.63,3571.32C1110.15,3575.6 1095.69,3579.89 1081.22,3584.2C1025.66,3600.71 970.055,3617.07 914.387,3633.22C885.364,3641.66 856.458,3650.39 827.657,3659.57C817.598,3662.45 817.598,3662.45 808.434,3662.45C797.452,3630.69 788.362,3598.71 779.797,3566.23C768.953,3525.46 757.807,3484.81 746.291,3444.23C734.275,3401.78 723.308,3359.15 712.802,3316.31C705.587,3287.1 697.579,3258.27 688.817,3229.49C678.98,3196.73 671.015,3163.53 662.866,3130.31C656.259,3103.58 649.213,3077.09 641.191,3050.75C630.294,3014.97 621.375,2978.77 612.464,2942.45C605.857,2915.71 598.811,2889.23 590.789,2862.89C579.913,2827.17 570.996,2791.05 562.122,2754.8C554.204,2722.7 545.488,2690.96 535.68,2659.39C531.705,2646.45 528.932,2635.97 528.932,2622.33C586.441,2607.76 644.111,2593.89 701.811,2580.1C730.708,2573.18 759.598,2566.24 788.489,2559.3C811.724,2553.72 834.962,2548.16 858.21,2542.63C900.462,2532.57 942.675,2522.38 984.788,2511.76C988.184,2510.9 991.58,2510.04 995.08,2509.16C998.52,2508.29 1001.96,2507.42 1005.51,2506.53C1012.55,2504.75 1019.6,2502.97 1026.65,2501.2C1030.14,2500.32 1033.64,2499.43 1037.23,2498.53C1092.88,2484.52 1148.67,2471.4 1204.73,2459.14C1227.02,2454.23 1249.24,2449.3 1271.24,2443.23C1274.31,2442.39 1277.37,2441.54 1280.53,2440.67C1289.09,2438.28 1297.64,2435.83 1306.18,2433.38C1321.09,2430.01 1333.9,2429.22 1349.11,2429.89Z" style="fill:#00275c;fill-rule:nonzero;"/>
                <path d="M3406.15,2763.8C3410.44,2763.78 3414.74,2763.77 3419.17,2763.75C3518.02,2763.89 3611.87,2799.17 3685.94,2865.18C3689.4,2867.99 3692.86,2870.8 3696.43,2873.7C3779.2,2942.53 3823.94,3043.84 3834.57,3149.34C3844.62,3267.33 3810.43,3376.49 3735.55,3468.48C3708.43,3499.79 3678.89,3524.62 3644.7,3547.9C3640.98,3550.44 3637.27,3552.98 3633.44,3555.6C3541.67,3614.34 3426.34,3632.83 3320.04,3610.27C3273.59,3598.99 3232.46,3580.68 3191.08,3557.06C3186.63,3554.68 3182.18,3552.29 3177.6,3549.83C3082.55,3495.04 3024.22,3397.04 2993.8,3294.47C2984.75,3259.13 2984.05,3225.06 2984.03,3188.78C2983.97,3183.81 2983.92,3178.84 2983.86,3173.71C2983.81,3144.35 2986.1,3117.96 2994.05,3089.7C2994.86,3086.65 2995.68,3083.6 2996.51,3080.46C3025.78,2973.69 3092.37,2881.09 3188.09,2824.1C3258.61,2783.99 3324.78,2763.47 3406.15,2763.8Z" style="fill:#00275c;fill-rule:nonzero;"/>
                <path d="M2282.07,2214.8C2290.49,2222.21 2298.35,2229.96 2306.19,2237.98C2309.25,2240.99 2312.31,2244.01 2315.46,2247.11C2325.71,2257.25 2335.86,2267.49 2346.01,2277.73C2353.33,2285.01 2360.65,2292.28 2367.98,2299.56C2387.89,2319.34 2407.71,2339.2 2427.51,2359.09C2448.21,2379.86 2468.98,2400.57 2489.74,2421.28C2526.82,2458.31 2563.84,2495.41 2600.83,2532.54C2634.38,2566.22 2668,2599.82 2701.68,2633.37C2740.78,2672.32 2779.83,2711.32 2818.81,2750.38C2839.45,2771.07 2860.11,2791.73 2880.82,2812.35C2900.28,2831.72 2919.67,2851.17 2939,2870.67C2946.13,2877.83 2953.27,2884.96 2960.44,2892.07C2970.2,2901.75 2979.87,2911.51 2989.52,2921.3C2992.4,2924.12 2995.28,2926.95 2998.25,2929.85C3006.01,2937.83 3006.01,2937.83 3016.96,2952.24C3016.57,2964.97 3016.57,2964.97 3012.38,2975.15C3011.43,2978.6 3010.48,2982.05 3009.5,2985.6C3001.37,3004.91 2994.04,3014.29 2974.7,3023.17C2958.99,3028.38 2943,3032.43 2926.95,3036.45C2907.84,3041.49 2889.13,3047.79 2870.34,3053.9C2863.28,3056.18 2856.22,3058.44 2849.15,3060.68C2846.16,3061.64 2843.17,3062.6 2840.09,3063.59C2836.46,3064.64 2832.84,3065.7 2829.1,3066.79C2824.15,3068.34 2819.2,3069.9 2814.11,3071.51C2785.81,3078.48 2757.1,3077.15 2728.14,3076.99C2721.67,3076.99 2715.21,3076.99 2708.75,3077C2691.31,3077 2673.86,3076.95 2656.42,3076.88C2638.15,3076.82 2619.89,3076.82 2601.62,3076.81C2567.07,3076.78 2532.53,3076.7 2497.98,3076.61C2458.63,3076.51 2419.28,3076.46 2379.93,3076.41C2299.03,3076.32 2218.12,3076.16 2137.22,3075.95C2135.01,3069.37 2132.8,3062.79 2130.6,3056.2C2129.37,3052.54 2128.14,3048.87 2126.88,3045.1C2122.89,3032.93 2119.38,3020.7 2116.08,3008.33C2114.82,3003.63 2113.55,2998.93 2112.26,2994.08C2110.95,2989.16 2109.64,2984.23 2108.29,2979.16C2106.9,2973.96 2105.51,2968.77 2104.08,2963.42C2093.74,2924.69 2083.69,2885.9 2073.66,2847.09C2066.26,2818.65 2058.18,2790.49 2049.67,2762.36C2039.88,2729.51 2031.89,2696.23 2023.72,2662.95C2017.12,2636.21 2010.07,2609.73 2002.05,2583.39C1992.59,2552.32 1984.58,2520.99 1976.85,2489.45C1965.87,2444.73 1953.47,2400.66 1940.19,2356.58C1937.38,2346.95 1934.61,2337.31 1931.89,2327.65C1930.28,2322.01 1930.28,2322.01 1928.65,2316.25C1926.44,2306.17 1926.44,2306.17 1926.44,2287.85C1973.46,2275.93 2020.57,2264.43 2067.75,2253.19C2092.22,2247.35 2116.68,2241.46 2141.1,2235.4C2153.18,2232.4 2165.26,2229.43 2177.35,2226.46C2186.02,2224.31 2194.68,2222.14 2203.34,2219.96C2208.66,2218.65 2213.98,2217.35 2219.46,2216C2224.15,2214.83 2228.85,2213.66 2233.68,2212.46C2268.61,2205.97 2268.61,2205.97 2282.07,2214.8Z" style="fill:#00275c;fill-rule:nonzero;"/>
                <path d="M6251.86,1252.31C6262.6,1263.05 6264.12,1269.68 6268.13,1284.21C6269.43,1288.88 6270.73,1293.54 6272.07,1298.35C6274.12,1305.9 6274.12,1305.9 6276.2,1313.6C6277.63,1318.77 6279.06,1323.94 6280.53,1329.27C6290.06,1364.1 6298.99,1399.05 6307.56,1434.12C6315.32,1465.63 6324.22,1496.75 6333.28,1527.9C6342.21,1558.79 6350.11,1589.85 6357.73,1621.07C6364.56,1648.8 6372.18,1676.23 6380.16,1703.64C6390.31,1738.53 6399.5,1773.54 6408.1,1808.84C6416.14,1841.5 6425.3,1873.8 6434.89,1906.04C6442.6,1932.27 6448.52,1958.54 6453.47,1985.43C6440.47,1994.1 6432,1997.37 6417.19,2001.38C6412.63,2002.63 6408.07,2003.89 6403.37,2005.18C6398.45,2006.51 6393.53,2007.83 6388.46,2009.2C6378.05,2012.07 6367.64,2014.94 6357.23,2017.81C6349.25,2020.01 6349.25,2020.01 6341.1,2022.25C6287.47,2037.13 6233.78,2052.12 6181.13,2070.2C6146.4,2082.08 6111.12,2091.74 6075.75,2101.52C6037.26,2112.17 5998.99,2123.4 5960.78,2134.99C5957.47,2135.99 5954.16,2137 5950.76,2138.03C5943.16,2140.34 5935.58,2142.69 5928,2145.06C5923.92,2146.32 5919.84,2147.58 5915.64,2148.88C5911.92,2150.05 5908.2,2151.21 5904.37,2152.4C5894.47,2154.97 5894.47,2154.97 5880.72,2154.97C5875.64,2137.34 5870.6,2119.7 5865.59,2102.06C5863.34,2094.14 5861.08,2086.23 5858.82,2078.31C5842.41,2020.78 5826.83,1963.16 5812.58,1905.06C5805.36,1875.85 5797.36,1847.02 5788.59,1818.24C5780.17,1790.19 5773.14,1761.86 5766.17,1733.42C5758.52,1702.27 5750.64,1671.32 5741.25,1640.64C5729,1600.55 5719.15,1559.87 5709.29,1519.14C5701.56,1487.54 5692.82,1456.61 5682.57,1425.74C5679.22,1413.09 5678.43,1402.78 5679.11,1389.77C5683.57,1388.66 5688.03,1387.55 5692.62,1386.4C5724.51,1378.43 5756.4,1370.45 5788.27,1362.44C5853.22,1346.13 5918.2,1330.05 5983.39,1314.7C5996.13,1311.67 6008.87,1308.6 6021.6,1305.51C6045.53,1299.7 6069.48,1293.96 6093.44,1288.28C6105.17,1285.49 6116.89,1282.69 6128.61,1279.89C6144.99,1275.98 6161.37,1272.13 6177.77,1268.32C6184.19,1266.82 6190.6,1265.3 6197.02,1263.76C6205.97,1261.61 6214.95,1259.54 6223.92,1257.47C6231.68,1255.64 6231.68,1255.64 6239.6,1253.78C6243.65,1253.3 6247.69,1252.81 6251.86,1252.31Z" style="fill:#00275c;fill-rule:nonzero;"/>
                <path d="M3296.47,1962.52L3296.47,2750.63C3269.25,2761.21 3242.03,2771.8 3213.99,2782.7C3195.84,2791.78 3195.84,2791.78 3177.33,2801.03C2962.62,2586.32 2747.91,2371.61 2526.69,2150.39C2537.13,2139.94 2541.88,2138.97 2556.01,2135.76C2560.29,2134.76 2564.58,2133.77 2568.99,2132.74C2573.74,2131.66 2578.49,2130.59 2583.39,2129.48C2593.87,2127.04 2604.35,2124.6 2614.82,2122.14C2620.53,2120.81 2626.24,2119.47 2632.12,2118.09C2661.71,2111.09 2691.17,2103.52 2720.65,2096.05C2782.64,2080.38 2844.75,2065.57 2907.16,2051.67C2957.58,2040.44 3007.8,2028.49 3057.99,2016.31C3086.85,2009.31 3115.73,2002.4 3144.62,1995.48C3167.95,1989.89 3191.28,1984.28 3214.6,1978.61C3223.37,1976.5 3232.14,1974.38 3240.91,1972.26C3244.94,1971.27 3248.97,1970.29 3253.13,1969.27C3258.69,1967.93 3258.69,1967.93 3264.36,1966.57C3267.59,1965.78 3270.82,1965 3274.14,1964.19C3282.72,1962.52 3282.72,1962.52 3296.47,1962.52Z" style="fill:#00275c;fill-rule:nonzero;"/>
                <path d="M5495.83,1435.59C5509.63,1482.74 5523.13,1529.9 5534.78,1577.63C5542.47,1609.17 5550.91,1640.4 5559.98,1671.57C5570.14,1706.49 5579.33,1741.53 5587.95,1776.86C5594.79,1804.59 5602.4,1832.02 5610.38,1859.43C5620.54,1894.35 5629.73,1929.39 5638.36,1964.73C5645.19,1992.45 5652.81,2019.88 5660.78,2047.29C5676.36,2100.89 5691.73,2155.05 5702.02,2209.95C5634.65,2232.53 5567.06,2254.15 5498.69,2273.53C5493.93,2274.89 5489.17,2276.26 5484.27,2277.67C5459.04,2284.72 5434.86,2290 5408.77,2292.43C5407.46,2289.64 5406.15,2286.86 5404.8,2283.99C5322.78,2110.14 5226.8,1949.16 5103.73,1800.92C5097.98,1793.94 5092.34,1786.88 5086.71,1779.8C5030.29,1708.91 4964.47,1645.84 4900.17,1582.22C4912,1570.39 4921.08,1569.28 4937.31,1565.27C4943.16,1563.81 4949.02,1562.35 4955.05,1560.84C4961.48,1559.28 4967.91,1557.72 4974.34,1556.16C4980.97,1554.52 4987.6,1552.89 4994.23,1551.26C5044.94,1538.81 5095.84,1527.18 5146.81,1515.81C5197.47,1504.51 5247.95,1492.5 5298.39,1480.25C5313.36,1476.63 5328.35,1473.06 5343.34,1469.49C5348.44,1468.28 5353.54,1467.06 5358.8,1465.81C5368.46,1463.51 5378.11,1461.21 5387.77,1458.92C5414.23,1452.6 5440.44,1445.75 5466.56,1438.15C5477.5,1435.59 5477.5,1435.59 5495.83,1435.59Z" style="fill:#00275c;fill-rule:nonzero;"/>
                <path d="M4612.38,1662.55C4615.96,1665.52 4619.55,1668.5 4623.24,1671.57C4629.19,1676.46 4629.19,1676.46 4635.25,1681.45C4639.51,1684.99 4643.77,1688.53 4648.16,1692.18C4652.89,1696.06 4657.62,1699.92 4662.35,1703.78C4674.44,1713.64 4686.51,1723.52 4698.56,1733.42C4694.53,1755.04 4681.16,1766.47 4666.01,1781.44C4661.57,1785.9 4661.57,1785.9 4657.05,1790.44C4647.12,1800.43 4637.13,1810.36 4627.15,1820.29C4620.03,1827.42 4612.91,1834.56 4605.79,1841.69C4586.44,1861.09 4567.04,1880.45 4547.63,1899.8C4527.36,1920.02 4507.12,1940.27 4486.88,1960.52C4452.89,1994.52 4418.86,2028.49 4384.83,2062.44C4349.78,2097.4 4314.76,2132.39 4279.77,2167.41C4237.63,2209.58 4195.47,2251.73 4153.28,2293.85C4137.15,2309.96 4121.03,2326.07 4104.92,2342.2C4085.97,2361.16 4067,2380.09 4048,2399.01C4041.02,2405.98 4034.04,2412.96 4027.07,2419.94C4017.59,2429.43 4008.09,2438.89 3998.58,2448.35C3995.79,2451.15 3993,2453.96 3990.13,2456.85C3971.07,2475.71 3971.07,2475.71 3960.86,2475.71C3960.14,2472.81 3959.43,2469.91 3958.7,2466.92C3946.13,2415.92 3933.45,2364.99 3919.14,2314.44C3911.26,2286.49 3903.95,2258.41 3896.71,2230.28C3888.83,2199.75 3880.65,2169.39 3871.51,2139.22C3860.66,2103.37 3851.73,2067.11 3842.81,2030.74C3835.94,2002.91 3828.55,1975.35 3820.25,1947.92C3795.9,1867.42 3795.9,1867.42 3795.9,1838.81C3849.01,1825.87 3902.12,1812.95 3955.24,1800.05C3964.1,1797.9 3972.97,1795.74 3981.83,1793.58C4028.35,1782.28 4074.91,1771.21 4121.57,1760.52C4125.27,1759.67 4128.96,1758.83 4132.77,1757.95C4136.53,1757.09 4140.29,1756.23 4144.16,1755.34C4151.88,1753.57 4159.61,1751.8 4167.33,1750.03C4171.16,1749.16 4174.98,1748.28 4178.92,1747.38C4243.78,1732.49 4308.36,1716.64 4372.88,1700.35C4412.04,1690.46 4451.28,1680.96 4490.63,1671.82C4502.12,1669.14 4513.59,1666.4 4525.07,1663.65C4532.59,1661.9 4540.12,1660.14 4547.64,1658.39C4551.05,1657.57 4554.47,1656.74 4557.98,1655.89C4580.97,1650.64 4593.01,1649.01 4612.38,1662.55Z" style="fill:#00275c;fill-rule:nonzero;"/>
                <path d="M4858.93,1898.38C4967.35,2006.79 5050.53,2139.03 5123.63,2272.95C5129.15,2283.05 5134.74,2293.11 5140.33,2303.17C5143.71,2309.32 5147.09,2315.48 5150.46,2321.64C5152.03,2324.44 5153.6,2327.25 5155.22,2330.14C5163.4,2345.25 5165.93,2352.62 5165.93,2370.32C5119.92,2386.55 5073.41,2400.12 5026.4,2413.12C4970.43,2428.62 4914.8,2445.13 4859.49,2462.87C4817.32,2476.38 4774.88,2488.59 4732.2,2500.41C4676.56,2515.86 4621.24,2532.29 4566.24,2549.92C4524.05,2563.45 4481.58,2575.67 4438.88,2587.49C4401.99,2597.72 4365.32,2608.51 4328.69,2619.61C4295.11,2629.79 4261.44,2639.68 4227.78,2649.59C4201.73,2657.29 4175.72,2665.1 4149.79,2673.2C4144.93,2674.71 4140.06,2676.22 4135.05,2677.78C4125.82,2680.66 4116.6,2683.57 4107.4,2686.51C4103.31,2687.78 4099.22,2689.05 4095.01,2690.37C4091.43,2691.5 4087.85,2692.63 4084.16,2693.8C4075.41,2695.64 4075.41,2695.64 4066.24,2691.06C4327.83,2429.48 4589.42,2167.89 4858.93,1898.38Z" style="fill:#00275c;fill-rule:nonzero;"/>
                <path d="M3323.96,3634.96C3336.05,3636.47 3348.15,3637.98 3360.61,3639.54C3368.39,3639.91 3376.17,3640.14 3383.95,3640.15C3388.01,3640.15 3392.07,3640.16 3396.25,3640.16C3400.37,3640.15 3404.48,3640.13 3408.72,3640.11C3412.84,3640.13 3416.96,3640.15 3421.2,3640.16C3427.29,3640.16 3427.29,3640.16 3433.5,3640.15C3437.1,3640.14 3440.71,3640.14 3444.42,3640.13C3460.85,3639.35 3477.17,3637 3493.49,3634.96L3493.49,5133.27L3323.96,5133.27L3323.96,3634.96Z" style="fill:#00275c;fill-rule:nonzero;"/>
                <rect x="3323.96" y="1247.73" width="169.534" height="1493.74" style="fill:#00275c;fill-rule:nonzero;"/>
                <path d="M4716.89,1760.91C4742.22,1772.94 4760.71,1792.28 4781.04,1811.32C4784.06,1814.14 4787.07,1816.96 4790.18,1819.87C4809.81,1838.84 4823.83,1857.68 4840.6,1880.05C4492.83,2227.82 4145.05,2575.6 3786.74,2933.91C3773.21,2920.38 3760.63,2907.66 3748.37,2893.24C3723.63,2864.82 3698.93,2840.45 3667.61,2819.36C3674.23,2804.19 3682.47,2794.2 3694.14,2782.53C3697.78,2778.87 3701.43,2775.21 3705.18,2771.44C3711.21,2765.45 3711.21,2765.45 3717.36,2759.34C3721.62,2755.08 3725.87,2750.81 3730.26,2746.42C3742.07,2734.58 3753.92,2722.78 3765.77,2710.97C3778.54,2698.24 3791.29,2685.48 3804.04,2672.72C3826.13,2650.62 3848.24,2628.54 3870.37,2606.47C3902.35,2574.56 3934.31,2542.62 3966.27,2510.68C4018.11,2458.86 4069.97,2407.05 4121.85,2355.26C4172.24,2304.95 4222.63,2254.63 4273.01,2204.29C4276.11,2201.19 4279.22,2198.09 4282.41,2194.89C4297.99,2179.33 4313.56,2163.77 4329.13,2148.21C4458.36,2019.08 4587.61,1889.99 4716.89,1760.91Z" style="fill:#00275c;fill-rule:nonzero;"/>
                <path d="M3782.16,3447.1C3808.55,3469.03 3832.84,3492.56 3857.05,3516.86C3861.27,3521.07 3865.49,3525.29 3869.84,3529.63C3881.48,3541.26 3893.1,3552.9 3904.73,3564.55C3917.29,3577.13 3929.87,3589.7 3942.44,3602.27C3964.2,3624.03 3985.96,3645.8 4007.7,3667.57C4039.15,3699.05 4070.6,3730.52 4102.06,3761.99C4153.1,3813.04 4204.14,3864.1 4255.16,3915.17C4304.72,3964.77 4354.28,4014.37 4403.85,4063.95C4406.91,4067.01 4409.97,4070.07 4413.12,4073.22C4428.45,4088.57 4443.79,4103.91 4459.13,4119.26C4586.3,4246.47 4713.46,4373.71 4840.6,4500.96C4836.29,4506.79 4831.96,4512.62 4827.63,4518.44C4825.23,4521.69 4822.82,4524.93 4820.34,4528.28C4810.53,4540.95 4799.91,4551.85 4788.48,4563.1C4786.33,4565.22 4784.18,4567.34 4781.97,4569.52C4763.97,4587.13 4745.33,4603.9 4726.05,4620.09C4710.88,4613.47 4700.89,4605.23 4689.23,4593.55C4685.57,4589.91 4681.91,4586.27 4678.14,4582.52C4674.14,4578.5 4670.15,4574.48 4666.03,4570.34C4661.77,4566.08 4657.51,4561.83 4653.11,4557.44C4641.28,4545.62 4629.47,4533.78 4617.66,4521.93C4604.93,4509.15 4592.17,4496.41 4579.41,4483.66C4557.32,4461.57 4535.23,4439.45 4513.16,4417.33C4481.25,4385.35 4449.31,4353.39 4417.37,4321.43C4365.55,4269.59 4313.74,4217.72 4261.96,4165.85C4211.64,4115.45 4161.32,4065.07 4110.99,4014.69C4107.89,4011.59 4104.78,4008.48 4101.59,4005.28C4086.03,3989.71 4070.46,3974.14 4054.9,3958.56C3925.77,3829.34 3796.68,3700.09 3667.61,3570.81C3672.94,3554.81 3676.86,3552.6 3690.23,3543.03C3726.12,3515.96 3757.57,3484.8 3782.16,3447.1Z" style="fill:#00275c;fill-rule:nonzero;"/>
                <path d="M3030.71,3447.1C3046.88,3463.14 3062.26,3479.59 3077.39,3496.64C3099.46,3521.17 3123.24,3542.02 3149.84,3561.64C3143.22,3576.81 3134.98,3586.81 3123.31,3598.47C3119.66,3602.13 3116.02,3605.79 3112.27,3609.56C3108.25,3613.56 3104.23,3617.55 3100.09,3621.66C3095.83,3625.93 3091.58,3630.19 3087.19,3634.58C3075.38,3646.42 3063.53,3658.23 3051.68,3670.03C3038.91,3682.77 3026.16,3695.53 3013.41,3708.28C2991.32,3730.38 2969.21,3752.47 2947.08,3774.54C2915.1,3806.45 2883.14,3838.38 2851.18,3870.33C2799.34,3922.15 2747.48,3973.95 2695.6,4025.74C2645.2,4076.05 2594.82,4126.38 2544.44,4176.71C2541.34,4179.81 2538.23,4182.91 2535.04,4186.11C2519.46,4201.67 2503.89,4217.23 2488.32,4232.8C2359.09,4361.92 2229.84,4491.02 2100.56,4620.09C2082.95,4611.92 2070.85,4600.72 2057.39,4586.98C2055.08,4584.65 2052.76,4582.32 2050.38,4579.93C2043.03,4572.53 2035.71,4565.09 2028.39,4557.66C2023.4,4552.62 2018.41,4547.59 2013.41,4542.55C2001.2,4530.24 1989.02,4517.9 1976.85,4505.54C1998.78,4479.15 2022.31,4454.86 2046.61,4430.64C2050.82,4426.42 2055.04,4422.2 2059.38,4417.86C2071.01,4406.22 2082.66,4394.59 2094.3,4382.97C2106.89,4370.41 2119.45,4357.83 2132.03,4345.26C2153.78,4323.49 2175.55,4301.74 2197.33,4279.99C2228.8,4248.55 2260.27,4217.1 2291.74,4185.64C2342.79,4134.59 2393.86,4083.56 2444.93,4032.53C2494.52,3982.97 2544.12,3933.41 2593.71,3883.85C2596.76,3880.79 2599.82,3877.73 2602.97,3874.58C2618.32,3859.24 2633.66,3843.9 2649.01,3828.57C2776.23,3701.39 2903.46,3574.24 3030.71,3447.1Z" style="fill:#00275c;fill-rule:nonzero;"/>
                <path d="M2091.4,1760.91C2106.57,1767.54 2116.56,1775.77 2128.22,1787.45C2131.88,1791.09 2135.54,1794.73 2139.31,1798.49C2143.31,1802.51 2147.3,1806.53 2151.42,1810.67C2155.68,1814.92 2159.94,1819.18 2164.33,1823.56C2176.17,1835.38 2187.98,1847.23 2199.79,1859.08C2212.52,1871.85 2225.28,1884.6 2238.03,1897.35C2260.13,1919.44 2282.22,1941.55 2304.29,1963.67C2336.2,1995.66 2368.14,2027.62 2400.08,2059.57C2451.9,2111.42 2503.7,2163.28 2555.49,2215.16C2605.8,2265.55 2656.13,2315.94 2706.46,2366.31C2709.56,2369.42 2712.67,2372.52 2715.86,2375.72C2731.42,2391.29 2746.99,2406.87 2762.55,2422.44C2891.68,2551.66 3020.77,2680.92 3149.84,2810.2C3142.21,2826.74 3134.54,2834.27 3119.77,2845.13C3098.42,2861.64 3080.85,2879.61 3063.27,2900.03C3052.92,2911.79 3041.78,2922.83 3030.71,2933.91C2682.93,2586.14 2335.16,2238.36 1976.85,1880.05C1993.12,1861.06 2008.49,1843.25 2026.07,1825.8C2029.91,1821.97 2033.75,1818.15 2037.7,1814.21C2041.62,1810.32 2045.55,1806.44 2049.59,1802.44C2053.61,1798.43 2057.64,1794.42 2061.79,1790.3C2071.65,1780.49 2081.52,1770.7 2091.4,1760.91Z" style="fill:#00275c;fill-rule:nonzero;"/>
                <path d="M3860.05,3108.03L5353.79,3108.03L5353.79,3272.98L3855.47,3272.98C3856.98,3241.22 3858.49,3209.47 3860.05,3176.76L3860.05,3108.03Z" style="fill:#00275c;fill-rule:nonzero;"/>
                <rect x="1468.24" y="3108.03" width="1493.74" height="164.952" style="fill:#00275c;fill-rule:nonzero;"/>
                <path d="M1747.75,2338.25C1749.08,2343.75 1750.42,2349.25 1751.79,2354.91C1761.91,2396.18 1772.53,2437.2 1784.4,2478C1794.57,2512.92 1803.75,2547.97 1812.38,2583.3C1819.21,2611.02 1826.83,2638.45 1834.8,2665.86C1843.87,2697.03 1852.31,2728.26 1860.01,2759.79C1867.61,2790.95 1875.94,2821.79 1884.92,2852.58C1896.57,2892.54 1906.96,2932.74 1916.86,2973.16C1923.31,2999.49 1930.17,3025.62 1937.64,3051.67C1940.19,3062.21 1940.19,3062.21 1940.19,3075.95L1472.83,3075.95C1472.83,3028.99 1474.04,2985.23 1479.99,2939.06C1480.38,2935.97 1480.77,2932.88 1481.18,2929.69C1495.61,2817.53 1520.57,2707.04 1555.3,2599.42C1556.53,2595.59 1557.75,2591.76 1559.02,2587.8C1579.61,2524.18 1605.08,2462.42 1632.19,2401.32C1635.67,2393.42 1639.03,2385.46 1642.17,2377.42C1649.97,2358.93 1653.36,2353.32 1672.12,2344.24C1678.11,2342.76 1684.13,2341.43 1690.18,2340.25C1694.69,2339.13 1694.69,2339.13 1699.29,2337.99C1716.77,2333.97 1730.49,2333.23 1747.75,2338.25Z" style="fill:#00275c;fill-rule:nonzero;"/>
                <path d="M3608.04,1884.63C3621.79,1898.37 3623.24,1915.76 3627.52,1934.17C3635.53,1967.55 3644.23,2000.6 3653.86,2033.55C3664.03,2068.47 3673.21,2103.51 3681.84,2138.84C3688.67,2166.56 3696.29,2193.99 3704.26,2221.41C3713.33,2252.58 3721.77,2283.8 3729.47,2315.34C3737.07,2346.49 3745.4,2377.34 3754.38,2408.12C3766.03,2448.09 3776.42,2488.28 3786.32,2528.71C3787.37,2533.01 3788.43,2537.32 3789.51,2541.75C3790.54,2545.97 3791.56,2550.18 3792.62,2554.52C3797.08,2571.94 3802.26,2589.14 3807.54,2606.32C3810,2619.67 3808.79,2627.63 3805.07,2640.66C3798.43,2649.5 3798.43,2649.5 3789.83,2657.98C3786.62,2661.19 3783.41,2664.4 3780.1,2667.71C3776.61,2671.1 3773.13,2674.49 3769.54,2677.98C3765.99,2681.51 3762.43,2685.03 3758.77,2688.67C3747.42,2699.91 3736.01,2711.1 3724.6,2722.28C3716.89,2729.9 3709.18,2737.52 3701.48,2745.14C3682.6,2763.82 3663.67,2782.45 3644.7,2801.03C3621.07,2791.64 3597.77,2781.53 3574.45,2771.41C3556.81,2764.03 3538.89,2757.34 3520.98,2750.63L3520.98,1907.54C3568.62,1891.66 3568.62,1891.66 3587.14,1887.78C3590.91,1886.95 3594.68,1886.11 3598.57,1885.26C3601.7,1885.05 3604.82,1884.84 3608.04,1884.63Z" style="fill:#00275c;fill-rule:nonzero;"/>
                <path d="M354.815,2691.06C385.592,2799.12 385.592,2799.12 398.631,2852.58C407.23,2887.83 416.937,2922.65 427.073,2957.49C434.912,2984.62 442.049,3011.86 448.747,3039.3C456.352,3070.45 464.68,3101.3 473.661,3132.08C485.08,3171.26 495.148,3210.66 504.865,3250.29C513.343,3284.6 522.794,3318.54 532.69,3352.47C541.552,3383.04 549.36,3413.8 556.908,3444.72C563.74,3472.44 571.359,3499.87 579.334,3527.28C588.804,3559.88 597.721,3592.57 605.967,3625.51C607.389,3631.16 607.389,3631.16 608.84,3636.93C613.564,3656.05 617.661,3675.02 620.572,3694.52C543.555,3685.41 474.417,3616.33 428.056,3558.42C375.861,3491.4 340.815,3420.16 308.995,3341.71C306.089,3334.63 306.089,3334.63 303.125,3327.41C263.546,3225.11 248.625,3116.53 248.57,3007.51C248.514,3001.7 248.458,2995.89 248.4,2989.91C248.342,2952.04 251.583,2916.13 258.593,2878.93C259.214,2875.51 259.834,2872.1 260.474,2868.59C268.046,2829.58 304.81,2691.06 354.815,2691.06Z" style="fill:#00275c;fill-rule:nonzero;"/>
                <path d="M481.698,2566.49C496.483,2586.9 500.459,2607.11 505.735,2631.5C508.048,2641.45 510.375,2651.4 512.716,2661.35C513.878,2666.35 515.04,2671.34 516.237,2676.49C521.438,2697.96 527.557,2719.13 533.8,2740.32C543.891,2774.87 552.965,2809.55 561.5,2844.52C568.236,2871.84 575.748,2898.87 583.63,2925.89C595.048,2965.07 605.117,3004.47 614.833,3044.1C623.311,3078.41 632.762,3112.35 642.659,3146.28C651.52,3176.85 659.328,3207.61 666.876,3238.53C673.709,3266.25 681.326,3293.68 689.302,3321.09C699.464,3356.01 708.654,3391.06 717.277,3426.39C724.11,3454.11 731.728,3481.54 739.704,3508.95C750.032,3544.47 759.519,3580.11 768.263,3616.05C772.555,3633.66 776.976,3651.18 782.016,3668.59C782.898,3671.68 783.781,3674.77 784.69,3677.95C787.056,3686.14 789.491,3694.32 791.932,3702.49C795.093,3719.62 793.943,3732.56 790.106,3749.51C768.261,3769.24 730.558,3777.27 701.616,3779.58C683.59,3776.83 678.301,3773.45 667.319,3759.33C655.134,3737.61 651.16,3712.6 645.773,3688.51C643.023,3676.85 640.261,3665.2 637.486,3653.55C636.164,3647.95 634.841,3642.34 633.479,3636.57C628.923,3617.88 623.676,3599.49 617.995,3581.12C607.155,3545.72 598.371,3509.9 589.553,3473.96C582.946,3447.22 575.9,3420.74 567.879,3394.4C558.418,3363.34 550.415,3332.01 542.678,3300.47C535.033,3269.31 527.145,3238.37 517.763,3207.68C505.589,3167.77 495.8,3127.3 485.808,3086.8C477.541,3053.39 468.886,3020.15 459.486,2987.04C451.667,2959.41 444.455,2931.64 437.292,2903.84C429.415,2873.31 421.234,2842.95 412.091,2812.77C401.08,2776.41 391.926,2739.64 382.961,2702.73C376.806,2677.54 370.065,2652.79 361.941,2628.15C359.077,2616.44 358.27,2606.85 359.397,2594.84C385.027,2564.94 446.912,2543.06 481.698,2566.49Z" style="fill:#00275c;fill-rule:nonzero;"/>
                <path d="M5614.96,1316.46C5640.85,1340.24 5645.86,1368.12 5653.62,1401.51C5656.36,1412.7 5659.11,1423.88 5661.87,1435.06C5663.22,1440.59 5664.57,1446.12 5665.97,1451.81C5671.53,1473.97 5677.82,1495.87 5684.27,1517.78C5694.25,1552.05 5703.22,1586.45 5711.68,1621.12C5718.41,1648.45 5725.93,1675.48 5733.81,1702.5C5745.36,1742.11 5755.52,1781.96 5765.34,1822.03C5771.87,1848.46 5778.86,1874.63 5786.79,1900.67C5796.13,1931.36 5804.06,1962.3 5811.7,1993.45C5820.59,2029.65 5830,2065.61 5840.34,2101.42C5841.48,2105.4 5842.63,2109.39 5843.81,2113.49C5848.48,2129.66 5853.22,2145.78 5858.17,2161.86C5865.18,2185.29 5870.72,2204.29 5862.39,2228.28C5840.56,2249.52 5809.52,2256.23 5779.91,2260.35C5765.7,2259.29 5756.08,2258.34 5744.35,2250.1C5719.14,2214.24 5713.63,2156.07 5703.31,2114.06C5696.63,2087 5689.53,2060.2 5681.4,2033.55C5670.5,1997.76 5661.59,1961.57 5652.67,1925.24C5646.07,1898.51 5639.02,1872.03 5631,1845.68C5620.1,1809.9 5611.18,1773.7 5602.27,1737.38C5595.66,1710.64 5588.62,1684.16 5580.6,1657.82C5571.14,1626.75 5563.13,1595.43 5555.4,1563.89C5547.35,1531.13 5539,1498.56 5529.34,1466.24C5528.4,1463.11 5527.47,1459.98 5526.51,1456.76C5522.46,1443.2 5518.32,1429.68 5514.1,1416.17C5501.14,1372.84 5501.14,1372.84 5509.58,1348.53C5533.87,1325.52 5582.06,1309.41 5614.96,1316.46Z" style="fill:#00275c;fill-rule:nonzero;"/>
                <path d="M6384.74,1151.51C6407.03,1171.24 6411.56,1199.7 6418.82,1227.4C6420.2,1232.51 6421.59,1237.62 6423.01,1242.88C6432.32,1277.5 6441.1,1312.25 6449.6,1347.07C6457.36,1378.57 6466.26,1409.69 6475.32,1440.84C6484.25,1471.73 6492.15,1502.79 6499.77,1534.02C6506.61,1561.74 6514.22,1589.17 6522.2,1616.58C6532.36,1651.5 6541.55,1686.55 6550.18,1721.88C6558,1753.64 6566.94,1785.01 6576.09,1816.41C6585.45,1848.78 6593.8,1881.34 6601.7,1914.09C6606.46,1933.66 6611.97,1952.59 6618.42,1971.69C6620.95,1989.39 6620.22,1996.41 6610.4,2011.49C6580.68,2032.65 6539.98,2040.43 6503.87,2035.84C6491.08,2022.51 6486.8,2009.08 6482.11,1991.45C6480.56,1985.75 6479.01,1980.05 6477.42,1974.18C6476.55,1970.92 6475.67,1967.66 6474.77,1964.3C6471.43,1952.02 6467.95,1939.78 6464.46,1927.53C6449.34,1874.44 6435.14,1821.22 6421.99,1767.6C6414.77,1738.39 6406.76,1709.56 6398,1680.78C6389.58,1652.73 6382.55,1624.39 6375.58,1595.96C6367.93,1564.81 6360.04,1533.86 6350.66,1503.18C6338.46,1463.22 6328.72,1422.67 6318.75,1382.11C6311.13,1351.33 6303.13,1320.76 6293.96,1290.4C6270.7,1213.25 6270.7,1213.25 6274.77,1183.58C6296.77,1157.19 6351.29,1141.62 6384.74,1151.51Z" style="fill:#00275c;fill-rule:nonzero;"/>
                <path d="M1866.88,2223.7C1885.51,2237.72 1890.62,2254.68 1896.38,2276.39C1897.33,2279.8 1898.28,2283.21 1899.27,2286.72C1907.46,2316.39 1914.8,2346.27 1922.11,2376.16C1929.02,2404.2 1936.7,2431.95 1944.77,2459.67C1954.93,2494.59 1964.12,2529.64 1972.75,2564.97C1979.58,2592.69 1987.2,2620.12 1995.17,2647.53C2004.24,2678.7 2012.68,2709.93 2020.38,2741.47C2027.98,2772.62 2036.31,2803.47 2045.29,2834.25C2056.95,2874.22 2067.21,2914.44 2077.09,2954.89C2084.32,2984.25 2092.36,3013 2102.1,3041.64C2105.14,3053.04 2105.14,3053.04 2105.14,3075.95L1967.68,3075.95C1963.62,3059.41 1959.56,3042.88 1955.37,3025.84C1947.24,2993.07 1938.9,2960.47 1929.02,2928.18C1916.8,2888.17 1907.06,2847.58 1897.07,2806.97C1889.06,2774.64 1880.48,2742.65 1870.75,2710.8C1860.95,2678.36 1853.1,2645.45 1845.02,2612.54C1838.42,2585.8 1831.37,2559.33 1823.35,2532.98C1812.47,2497.25 1803.53,2461.11 1794.67,2424.82C1787.73,2396.64 1780.05,2368.85 1771.52,2341.11C1754.08,2283.11 1754.08,2283.11 1756.91,2260.35C1768.65,2240.65 1783.04,2235.55 1804.16,2229.14C1825.92,2224.04 1844.64,2220.97 1866.88,2223.7Z" style="fill:#00275c;fill-rule:nonzero;"/>
                <path d="M3736.34,1779.24C3754.97,1793.27 3760.08,1810.23 3765.84,1831.94C3766.79,1835.35 3767.74,1838.76 3768.73,1842.27C3776.92,1871.93 3784.26,1901.81 3791.57,1931.7C3798.48,1959.74 3806.16,1987.49 3814.23,2015.22C3823.3,2046.38 3831.74,2077.61 3839.43,2109.15C3847.04,2140.3 3855.37,2171.15 3864.35,2201.93C3875.76,2241.08 3885.83,2280.45 3895.52,2320.04C3904.2,2355.21 3913.83,2390.03 3924.18,2424.73C3926.32,2431.98 3928.35,2439.26 3930.28,2446.56C3933.2,2457.56 3933.2,2457.56 3937.91,2468.43C3942.38,2481.37 3944.2,2489.56 3942.53,2503.2C3928.89,2523.92 3911.45,2539.87 3893.27,2556.47C3888.44,2561.1 3883.62,2565.75 3878.81,2570.41C3843.68,2604.01 3843.68,2604.01 3832.56,2604.01C3809.41,2524.93 3788.44,2445.22 3767.84,2365.45C3759.35,2332.58 3750.27,2299.99 3740.43,2267.5C3730.64,2234.65 3722.65,2201.37 3714.48,2168.09C3707.88,2141.35 3700.83,2114.87 3692.81,2088.53C3681.93,2052.79 3672.99,2016.65 3664.13,1980.37C3657.19,1952.18 3649.51,1924.39 3640.97,1896.66C3623.54,1838.66 3623.54,1838.66 3626.37,1815.9C3638.11,1796.19 3652.5,1791.09 3673.62,1784.68C3695.38,1779.58 3714.1,1776.51 3736.34,1779.24Z" style="fill:#00275c;fill-rule:nonzero;"/>
                <path d="M3362.47,3022.67C3366.15,3022.66 3369.83,3022.65 3373.62,3022.64C3381.36,3022.64 3389.11,3022.7 3396.86,3022.82C3408.69,3022.97 3420.5,3022.91 3432.33,3022.82C3439.88,3022.85 3447.43,3022.9 3454.97,3022.95C3458.49,3022.93 3462.01,3022.91 3465.64,3022.89C3481.76,3023.24 3492.34,3024.87 3506.3,3033.17C3517.59,3045.14 3525.29,3056.89 3533.35,3071.24C3536.34,3076.5 3539.32,3081.75 3542.4,3087.16C3545.48,3092.69 3548.55,3098.21 3551.63,3103.73C3554.75,3109.27 3557.88,3114.81 3561.01,3120.35C3566.75,3130.49 3572.46,3140.64 3578.15,3150.8C3583.21,3159.65 3588.64,3168.28 3594.3,3176.76C3594.42,3209.16 3577.29,3233.93 3561.36,3261.24C3558.77,3265.81 3556.18,3270.39 3553.51,3275.1C3512.99,3345.71 3512.99,3345.71 3493.49,3355.45C3469.55,3356.76 3445.6,3356.89 3421.63,3357.06C3413.62,3357.13 3405.62,3357.26 3397.62,3357.43C3386.06,3357.69 3374.51,3357.79 3362.96,3357.85C3359.4,3357.96 3355.84,3358.06 3352.17,3358.17C3334.31,3358.1 3325.32,3356.51 3311.06,3345.45C3301.36,3332.94 3292.98,3320.62 3285.1,3306.9C3280.93,3299.69 3280.93,3299.69 3276.68,3292.34C3273.85,3287.37 3271.03,3282.39 3268.11,3277.27C3265.24,3272.29 3262.36,3267.3 3259.39,3262.16C3251.82,3249 3244.27,3235.84 3236.9,3222.58C3235.1,3219.7 3233.29,3216.82 3231.43,3213.85C3223.7,3193.77 3225.65,3176.98 3234.1,3157.54C3237.03,3152.67 3239.95,3147.8 3242.97,3142.78C3244.54,3140.14 3246.11,3137.49 3247.73,3134.77C3251.06,3129.21 3254.41,3123.67 3257.8,3118.16C3262.94,3109.78 3267.96,3101.34 3272.97,3092.88C3315.68,3021.86 3315.68,3021.86 3362.47,3022.67Z" style="fill:#00275c;fill-rule:nonzero;"/>
                <path d="M1472.83,3305.05L2004.34,3305.05C1988.17,3315.83 1971.74,3320.86 1953.36,3326.53C1949.57,3327.72 1945.77,3328.91 1941.85,3330.13C1905.37,3341.4 1868.61,3351.63 1831.81,3361.83C1776.15,3377.27 1720.82,3393.71 1665.81,3411.35C1626.8,3423.85 1587.59,3435.44 1548.14,3446.52C1543.09,3447.95 1538.05,3449.37 1532.85,3450.83C1528.15,3452.14 1523.46,3453.45 1518.63,3454.79C1512.33,3456.54 1512.33,3456.54 1505.91,3458.33C1495.74,3460.84 1495.74,3460.84 1486.57,3460.84C1476.19,3407.81 1472.83,3359.73 1472.83,3305.05Z" style="fill:#00275c;fill-rule:nonzero;"/>
                <path d="M114.027,3223.01C136.442,3236.94 154.612,3251.68 162.371,3277.56C166.555,3302.14 165.109,3321.74 152.348,3343.43C138.899,3362.29 125.06,3375.53 102.805,3382.95C73.947,3386.53 51.932,3384.42 28.097,3367.05C10.394,3351.06 3.27,3337.8 0.282,3314.65C-0.582,3292.82 0.035,3277.14 9.447,3257.23C38.304,3226.09 71.187,3203.88 114.027,3223.01Z" style="fill:#00275c;fill-rule:nonzero;"/>
                <path d="M2031.83,3305.05C2051.32,3304.94 2070.82,3304.86 2090.31,3304.8C2096.94,3304.78 2103.58,3304.75 2110.22,3304.71C2119.74,3304.65 2129.26,3304.62 2138.77,3304.61C2144.51,3304.58 2150.24,3304.56 2156.15,3304.53C2169.29,3305.05 2169.29,3305.05 2173.87,3309.63C2173.21,3327.14 2172.13,3338.19 2160.99,3352.02C2131.49,3368.21 2097.52,3375.78 2063.91,3373.78C2041.58,3359.75 2037.65,3333.85 2031.83,3309.63L2031.83,3305.05Z" style="fill:#00275c;fill-rule:nonzero;"/>
                <path d="M249.429,3222.58C251.742,3230.68 254.028,3238.8 256.302,3246.92C257.578,3251.44 258.854,3255.95 260.168,3260.61C263.175,3272.98 263.175,3272.98 263.175,3286.72C251.915,3289.79 240.65,3292.85 229.383,3295.89C226.182,3296.76 222.98,3297.64 219.682,3298.54C195.483,3305.05 195.483,3305.05 185.281,3305.05C184.673,3301.96 184.064,3298.86 183.438,3295.67C182.628,3291.59 181.819,3287.5 180.985,3283.29C180.188,3279.25 179.391,3275.21 178.569,3271.05C176.467,3260.92 174.131,3250.91 171.535,3240.9C181.934,3237.83 192.339,3234.78 202.75,3231.74C208.544,3230.04 214.339,3228.34 220.308,3226.59C235.683,3222.58 235.683,3222.58 249.429,3222.58Z" style="fill:#00275c;fill-rule:nonzero;"/>
                <path d="M4006.68,2750.63C4015.84,2764.38 4015.84,2764.38 4015.55,2777.84C4009.94,2796.18 4005.01,2800.68 3988.35,2810.2C3973.2,2814.27 3958.04,2817.07 3942.53,2819.36C3962.73,2795.12 3984.11,2772.68 4006.68,2750.63Z" style="fill:#00275c;fill-rule:nonzero;"/>
                <path d="M2980.31,3053.04C2977.28,3062.11 2974.26,3071.19 2971.14,3080.53L2874.92,3080.53C2891.82,3069.27 2908.27,3064.72 2927.61,3059.06C2932.92,3057.42 2932.92,3057.42 2938.34,3055.75C2941.74,3054.75 2945.15,3053.74 2948.66,3052.7C2951.77,3051.78 2954.87,3050.85 2958.07,3049.9C2966.56,3048.46 2966.56,3048.46 2980.31,3053.04Z" style="fill:#00275c;fill-rule:nonzero;"/>
            </g>
        </g>
    </g>
</svg>
